<?xml version="1.0" encoding="UTF-8"?><svg id="Layer_1" xmlns="http://www.w3.org/2000/svg" viewBox="0 0 640 640"><defs><style>.cls-1{fill:#00a3d2;}.cls-1,.cls-2{stroke-width:0px;}.cls-3{opacity:.95;}.cls-2{fill:#71d2d2;}</style></defs><path class="cls-1" d="M314.11,598.51l3.83,1.23,2.17.36,2.66.31c19.19.97,38.36-17.17,38.36-33.07-.03-98.62,2.99-267.95-27.7-340.86-2.4-5.75-5.6-12.42-9.43-19.35-1.46,2.45-2.94,4.91-4.09,7.31-35.19,73.86-29.75,251.78-30.62,353.21-.05,8.13,4.24,16.2,10.76,22.34,2.89,1.94,5.7,3.83,8.43,5.67l5.62,2.86Z"/><path class="cls-2" d="M264.22,562.52c.13-13.62.13-28.62.13-44.54.03-104.86.05-248.45,32.15-315.82,1.3-2.73,2.81-5.26,4.14-7.51l1.56-2.66.41-.77.69-1.3.15-.18,2.43-4.01c-3.42-5.03-7.1-10.02-11.09-14.64l-.03-.03c-3.91-4.52-8.08-8.56-12.45-12.24-50.88-49.32-129.24-63.12-194.96-27.78C19.99,167.23-11.73,242.9,3.94,314.05l.77,3.96c1.23,5.03,2.66,9.97,4.4,14.92,2.81,8.56,6.08,16.56,10.04,24.23l.1.26.08.1c1.79,3.45,3.35,7.26,5.21,10.45,36.16,61.23,154.36,141.45,239.89,198.62l-.2-4.06ZM200.34,341.06c-30.44,16.36-68.36,4.93-84.72-25.48-16.36-30.44-4.93-68.36,25.5-84.72,30.41-16.36,68.34-4.93,84.69,25.48,16.36,30.44,4.96,68.36-25.48,84.72"/><g class="cls-3"><path class="cls-1" d="M551.5,134.16c-24.64-12.98-51.01-19.12-76.97-19.12-45.31,0-89.45,18.66-121.39,52.16l-2.89,2.86c-3.48,3.83-6.77,7.79-9.92,11.99-5.52,7.13-10.32,14.29-14.49,21.88l-.13.2-.08.15c-.51.94-1.07,1.89-1.63,2.85,0,0,0,0,0-.01-1.43,2.45-2.94,4.91-4.09,7.31-35.19,73.86-29.75,251.78-30.62,353.21v.38c.02,2.02.31,4.03.83,6.01.3,1.16.84,2.28,1.3,3.42.32.79.53,1.6.92,2.36.73,1.45,1.67,2.83,2.63,4.19.27.39.47.8.76,1.18,1.16,1.52,2.49,2.93,3.89,4.29.16.16.28.34.45.49.01,0,.02.02.03.02,4.25,3.99,9.46,7.04,15.07,8.85l2.78.89.1.02c1.24.29,2.5.38,3.76.53l-1.13-.13,2.11.22c.41.02.8.03,1.2.04-.37,0-.74,0-1.12-.02.87.07,1.73.28,2.61.28,5.7,0,11.45-1.56,16.74-5.19,81.34-55.74,223.89-147.2,267.24-213.39,8.51-13.01,19.14-33.04,24.74-53.51v-.03c1.58-5.75,2.61-11.5,3.19-17.17,12.47-69.74-19.83-142.42-85.87-177.23ZM303.44,592.26c1.69,1.14,3.39,2.29,5.04,3.39l2.74,1.39-2.76-1.4c-1.63-1.1-3.34-2.25-5.02-3.39ZM524.92,319.03c-11.19,21.26-32.92,33.4-55.38,33.4-9.84,0-19.81-2.33-29.11-7.21-30.56-16.13-42.29-53.95-26.19-84.51,11.22-21.26,32.92-33.4,55.4-33.4,9.81,0,19.81,2.33,29.11,7.23,30.54,16.1,42.27,53.92,26.17,84.49Z"/><path class="cls-1" d="M322.77,600.4s.05,0,.08,0c-.35-.03-.7-.07-1.06-.11l.98.11Z"/></g></svg>